<svg id="Layer_1" data-name="Layer 1" xmlns="http://www.w3.org/2000/svg" viewBox="0 0 1728 2592"><defs><style>.cls-1{fill:#084bc1;}</style></defs><path d="M830.36,962.46v12.7h10v10.22h-10v16.14c0,5.37,1.33,7.84,5.46,7.84a18,18,0,0,0,4.12-.41l.11,10.52a29.07,29.07,0,0,1-9,1.19c-4.48,0-8.21-1.55-10.44-3.86-2.57-2.64-3.83-6.88-3.83-13.2V985.38H810.9V975.16h5.91v-9.57Z"/><path class="cls-1" d="M858.53,1001.89c.41,5.75,6.09,8.47,12.55,8.47,4.68,0,20.81-5.67,24.54-6.93l3.22,8.73c-4.61,1.88-23.8,8.5-29.77,8.5-15.09,0-23.75-8.78-23.75-22.67,0-11.31,7-23.83,22.45-23.83,14.43,0,19.88,11.22,19.88,22.24a27,27,0,0,1-.49,5.49Zm16.25-9.49c0-3.33-1.46-9-7.76-9-5.85,0-8.22,5.35-8.61,9Z"/><path class="cls-1" d="M921.25,1019.71l-.82-4.43h-.29c-2.91,3.55-7.45,5.43-12.72,5.43-9.07,0-14.4-6.51-14.4-13.63,0-11.6,10.38-17.1,26.14-17.08v-.57c0-2.37-1.27-5.75-8.16-5.74-4.54,0-22,6.39-26.3,8.17l-3.22-8.79c4.39-1.77,22.51-9.21,30.64-9.21,14.83,0,20.89,9.07,20.89,19.53v15.53a63.75,63.75,0,0,0,.71,10.79Zm-1.68-21.07c-7.28,0-12.92,1.72-12.92,7,0,3.59,2.35,5.33,5.5,5.33a7.56,7.56,0,0,0,7.16-5.11,8.8,8.8,0,0,0,.26-2.37Z"/><path d="M944,989.39c0-5.54-.17-10.23-.36-14.23h11.7l.59,6h.29a15.43,15.43,0,0,1,13.44-7c5.79,0,10.27,3,12.19,7.64H982a18.62,18.62,0,0,1,5.78-5.43,15.87,15.87,0,0,1,8.45-2.21c8.51,0,15,6,15,19.33v26.22H997.75V995.52c0-6.46-2.08-10.2-6.56-10.2a6.77,6.77,0,0,0-6.37,4.83,12,12,0,0,0-.5,3.51v26.05H970.85v-25c0-5.61-2-9.42-6.42-9.42-3.55,0-5.66,2.72-6.49,5a10.38,10.38,0,0,0-.52,3.51v25.91H944Z"/><path d="M1036.47,962.8c0,3.85-2.83,6.92-7.44,6.92-4.39,0-7.23-3.07-7.21-6.92s2.89-6.93,7.33-6.93S1036.42,958.83,1036.47,962.8Zm-14.26,56.91V975.16h13.87v44.55Z"/><path d="M1047.14,989.39c0-5.54-.17-10.23-.36-14.23h12l.64,6.18h.29a16.14,16.14,0,0,1,13.77-7.18c9.09,0,15.94,6.07,15.94,19.18v26.37h-13.87V995c0-5.74-2-9.67-7-9.67a7.47,7.47,0,0,0-7,5.23A9.82,9.82,0,0,0,1061,994v25.7h-13.87Z"/><path d="M1143,975.16c-.21,2.88-.38,6.64-.38,13.28v24.79c0,8.55-1.73,15.56-6.78,20-4.88,4.23-11.5,5.47-18,5.47-5.88,0-12-1.21-16-3.42l2.75-10.49a27.52,27.52,0,0,0,12.9,3.33c6.55,0,11.55-3.5,11.55-11.72v-2.87h-.18a14.33,14.33,0,0,1-12,5.75c-11,0-18.83-8.93-18.83-21.68,0-14.37,9.25-23.47,20.18-23.47,6.12,0,9.94,2.67,12.2,6.33h.18l.46-5.33Zm-14.23,18.16a10.86,10.86,0,0,0-.28-2.56c-1-3.66-3.6-6.13-7.45-6.13-5,0-9,4.6-9,12.68,0,6.63,3.28,11.82,9,11.82a7.58,7.58,0,0,0,7.35-5.59,14.7,14.7,0,0,0,.4-3.67Z"/></svg>